<?xml version="1.0" encoding="UTF-8" standalone="no"?>
<!DOCTYPE svg PUBLIC "-//W3C//DTD SVG 1.1//EN"
 "http://www.w3.org/Graphics/SVG/1.1/DTD/svg11.dtd">
<!-- Generated by graphviz version 15.1.0 (20260618.0150)
 -->
<!-- Title: G Pages: 1 -->
<svg width="530pt" height="708pt"
 viewBox="0.00 0.00 530.00 708.00" xmlns="http://www.w3.org/2000/svg" xmlns:xlink="http://www.w3.org/1999/xlink">
<g id="graph0" class="graph" transform="scale(1 1) rotate(0) translate(4 704)">
<title>G</title>
<polygon fill="#ffffff" stroke="none" points="-4,4 -4,-704 526,-704 526,4 -4,4"/>
<g id="clust1" class="cluster">
<title>cluster_S_root</title>
<path fill="#ffffff" stroke="#6b7280" stroke-width="2" stroke-dasharray="5,2" d="M20,-8C20,-8 502,-8 502,-8 508,-8 514,-14 514,-20 514,-20 514,-680 514,-680 514,-686 508,-692 502,-692 502,-692 20,-692 20,-692 14,-692 8,-686 8,-680 8,-680 8,-20 8,-20 8,-14 14,-8 20,-8"/>
<text xml:space="preserve" text-anchor="middle" x="261" y="-674.7" font-family="Microsoft YaHei" font-size="14.00">S_root · 导数与连续性章节 (description)</text>
</g>
<g id="clust2" class="cluster">
<title>cluster_S_skel</title>
<path fill="#ffffff" stroke="#8b5cf6" stroke-width="2" d="M28,-16C28,-16 494,-16 494,-16 500,-16 506,-22 506,-28 506,-28 506,-553.5 506,-553.5 506,-559.5 500,-565.5 494,-565.5 494,-565.5 28,-565.5 28,-565.5 22,-565.5 16,-559.5 16,-553.5 16,-553.5 16,-28 16,-28 16,-22 22,-16 28,-16"/>
<text xml:space="preserve" text-anchor="middle" x="261" y="-548.2" font-family="Microsoft YaHei" font-size="14.00">S_skel · 可导⇒连续 骨架 (description)</text>
</g>
<g id="clust3" class="cluster">
<title>cluster_S_proof</title>
<path fill="#ffffff" stroke="#ef4444" stroke-width="2" d="M308,-24C308,-24 486,-24 486,-24 492,-24 498,-30 498,-36 498,-36 498,-428.25 498,-428.25 498,-434.25 492,-440.25 486,-440.25 486,-440.25 308,-440.25 308,-440.25 302,-440.25 296,-434.25 296,-428.25 296,-428.25 296,-36 296,-36 296,-30 302,-24 308,-24"/>
<text xml:space="preserve" text-anchor="middle" x="397" y="-422.95" font-family="Microsoft YaHei" font-size="14.00">S_proof · 证明细节 (proof)</text>
</g>
<!-- T_derivative_implies_continuous -->
<g id="node1" class="node">
<title>T_derivative_implies_continuous</title>
<path fill="#fef3c7" stroke="#f59e0b" stroke-width="2" d="M186.62,-657.25C186.62,-657.25 63.38,-657.25 63.38,-657.25 57.38,-657.25 51.38,-651.25 51.38,-645.25 51.38,-645.25 51.38,-629 51.38,-629 51.38,-623 57.38,-617 63.38,-617 63.38,-617 186.62,-617 186.62,-617 192.62,-617 198.62,-623 198.62,-629 198.62,-629 198.62,-645.25 198.62,-645.25 198.62,-651.25 192.62,-657.25 186.62,-657.25"/>
<text xml:space="preserve" text-anchor="middle" x="125" y="-642.8" font-family="Microsoft YaHei" font-size="11.00">T · 可导 ⇒ 连续 (theorem)</text>
<text xml:space="preserve" text-anchor="middle" x="125" y="-625.55" font-family="Microsoft YaHei" font-size="11.00">双击展开→S_skel</text>
</g>
<!-- A_f_is_differentiable -->
<g id="node2" class="node">
<title>A_f_is_differentiable</title>
<path fill="#dbeafe" stroke="#3b82f6" d="M209.88,-527.75C209.88,-527.75 40.12,-527.75 40.12,-527.75 34.12,-527.75 28.12,-521.75 28.12,-515.75 28.12,-515.75 28.12,-503.75 28.12,-503.75 28.12,-497.75 34.12,-491.75 40.12,-491.75 40.12,-491.75 209.88,-491.75 209.88,-491.75 215.88,-491.75 221.88,-497.75 221.88,-503.75 221.88,-503.75 221.88,-515.75 221.88,-515.75 221.88,-521.75 215.88,-527.75 209.88,-527.75"/>
<text xml:space="preserve" text-anchor="middle" x="125" y="-506.8" font-family="Microsoft YaHei" font-size="11.00">A_f_diff · f 在 x0 可导 (assumption)</text>
</g>
<!-- T_derivative_implies_continuous&#45;&gt;A_f_is_differentiable -->
<g id="edge7" class="edge">
<title>T_derivative_implies_continuous&#45;&gt;A_f_is_differentiable</title>
<path fill="none" stroke="#9ca3af" stroke-dasharray="1,5" d="M125,-616.26C125,-595.56 125,-562.94 125,-539.44"/>
<polygon fill="#9ca3af" stroke="#9ca3af" points="128.5,-539.61 125,-529.61 121.5,-539.61 128.5,-539.61"/>
<text xml:space="preserve" text-anchor="middle" x="157.62" y="-575.45" font-family="Times New Roman,serif" font-size="9.00">skeleton_scope_id</text>
</g>
<!-- C_f_is_continuous -->
<g id="node3" class="node">
<title>C_f_is_continuous</title>
<path fill="#d1fae5" stroke="#10b981" d="M225.88,-68C225.88,-68 56.12,-68 56.12,-68 50.12,-68 44.12,-62 44.12,-56 44.12,-56 44.12,-44 44.12,-44 44.12,-38 50.12,-32 56.12,-32 56.12,-32 225.88,-32 225.88,-32 231.88,-32 237.88,-38 237.88,-44 237.88,-44 237.88,-56 237.88,-56 237.88,-62 231.88,-68 225.88,-68"/>
<text xml:space="preserve" text-anchor="middle" x="141" y="-47.05" font-family="Microsoft YaHei" font-size="11.00">C_f_cont · f 在 x0 连续 (conclusion)</text>
</g>
<!-- A_f_is_differentiable&#45;&gt;C_f_is_continuous -->
<g id="edge6" class="edge">
<title>A_f_is_differentiable&#45;&gt;C_f_is_continuous</title>
<path fill="none" stroke="#f59e0b" stroke-width="2.5" stroke-dasharray="5,2" d="M117.58,-491.26C103.44,-457.91 74,-388.5 74,-388.5 74,-388.5 74,-388.5 74,-161.5 74,-161.5 103.63,-112.63 123.48,-79.89"/>
<polygon fill="#f59e0b" stroke="#f59e0b" stroke-width="2.5" points="126.38,-81.87 128.57,-71.5 120.39,-78.24 126.38,-81.87"/>
<text xml:space="preserve" text-anchor="middle" x="164" y="-271.5" font-family="Times New Roman,serif" font-size="10.00">implies (外部, proof_scope_id→S_proof)</text>
</g>
<!-- M_derivative_definition -->
<g id="node4" class="node">
<title>M_derivative_definition</title>
<path fill="#fef3c7" stroke="#f59e0b" d="M465.88,-405.5C465.88,-405.5 320.12,-405.5 320.12,-405.5 314.12,-405.5 308.12,-399.5 308.12,-393.5 308.12,-393.5 308.12,-381.5 308.12,-381.5 308.12,-375.5 314.12,-369.5 320.12,-369.5 320.12,-369.5 465.88,-369.5 465.88,-369.5 471.88,-369.5 477.88,-375.5 477.88,-381.5 477.88,-381.5 477.88,-393.5 477.88,-393.5 477.88,-399.5 471.88,-405.5 465.88,-405.5"/>
<text xml:space="preserve" text-anchor="middle" x="393" y="-384.55" font-family="Microsoft YaHei" font-size="11.00">M1 · 导数定义展开 (definition)</text>
</g>
<!-- A_f_is_differentiable&#45;&gt;M_derivative_definition -->
<g id="edge1" class="edge">
<title>A_f_is_differentiable&#45;&gt;M_derivative_definition</title>
<path fill="none" stroke="#3b82f6" stroke-width="1.5" d="M170.63,-491.29C223.67,-470.99 304,-440.25 304,-440.25 304,-440.25 329.4,-425.48 353.06,-411.72"/>
<polygon fill="#3b82f6" stroke="#3b82f6" stroke-width="1.5" points="354.52,-414.93 361.4,-406.87 351,-408.87 354.52,-414.93"/>
<text xml:space="preserve" text-anchor="middle" x="294.57" y="-450.2" font-family="Times New Roman,serif" font-size="9.00">implies</text>
</g>
<!-- M_limit_zero -->
<g id="node5" class="node">
<title>M_limit_zero</title>
<path fill="#d1fae5" stroke="#10b981" d="M477.75,-293C477.75,-293 316.25,-293 316.25,-293 310.25,-293 304.25,-287 304.25,-281 304.25,-281 304.25,-269 304.25,-269 304.25,-263 310.25,-257 316.25,-257 316.25,-257 477.75,-257 477.75,-257 483.75,-257 489.75,-263 489.75,-269 489.75,-269 489.75,-281 489.75,-281 489.75,-287 483.75,-293 477.75,-293"/>
<text xml:space="preserve" text-anchor="middle" x="397" y="-272.05" font-family="Microsoft YaHei" font-size="11.00">M2 · 差值的极限为 0 (conclusion)</text>
</g>
<!-- M_derivative_definition&#45;&gt;M_limit_zero -->
<g id="edge2" class="edge">
<title>M_derivative_definition&#45;&gt;M_limit_zero</title>
<path fill="none" stroke="#3b82f6" stroke-width="1.5" d="M393.62,-369.23C394.24,-352.12 395.2,-325.59 395.94,-305.2"/>
<polygon fill="#3b82f6" stroke="#3b82f6" stroke-width="1.5" points="399.43,-305.53 396.3,-295.41 392.44,-305.28 399.43,-305.53"/>
<text xml:space="preserve" text-anchor="middle" x="407.87" y="-327.95" font-family="Times New Roman,serif" font-size="9.00">implies</text>
</g>
<!-- M_limit_implies_continuity -->
<g id="node6" class="node">
<title>M_limit_implies_continuity</title>
<path fill="#ede9fe" stroke="#8b5cf6" d="M472.38,-180.5C472.38,-180.5 317.62,-180.5 317.62,-180.5 311.62,-180.5 305.62,-174.5 305.62,-168.5 305.62,-168.5 305.62,-156.5 305.62,-156.5 305.62,-150.5 311.62,-144.5 317.62,-144.5 317.62,-144.5 472.38,-144.5 472.38,-144.5 478.38,-144.5 484.38,-150.5 484.38,-156.5 484.38,-156.5 484.38,-168.5 484.38,-168.5 484.38,-174.5 478.38,-180.5 472.38,-180.5"/>
<text xml:space="preserve" text-anchor="middle" x="395" y="-159.55" font-family="Microsoft YaHei" font-size="11.00">M3 · 极限存在推出连续 (lemma)</text>
</g>
<!-- M_limit_zero&#45;&gt;M_limit_implies_continuity -->
<g id="edge3" class="edge">
<title>M_limit_zero&#45;&gt;M_limit_implies_continuity</title>
<path fill="none" stroke="#3b82f6" stroke-width="1.5" d="M396.69,-256.73C396.38,-239.62 395.9,-213.09 395.53,-192.7"/>
<polygon fill="#3b82f6" stroke="#3b82f6" stroke-width="1.5" points="399.03,-192.85 395.35,-182.91 392.03,-192.98 399.03,-192.85"/>
<text xml:space="preserve" text-anchor="middle" x="408.81" y="-215.45" font-family="Times New Roman,serif" font-size="9.00">implies</text>
</g>
<!-- M_limit_implies_continuity&#45;&gt;C_f_is_continuous -->
<g id="edge4" class="edge">
<title>M_limit_implies_continuity&#45;&gt;C_f_is_continuous</title>
<path fill="none" stroke="#3b82f6" stroke-width="1.5" d="M355.03,-144.11C311.06,-124.98 240.26,-94.18 192.24,-73.29"/>
<polygon fill="#3b82f6" stroke="#3b82f6" stroke-width="1.5" points="193.8,-70.15 183.23,-69.37 191.01,-76.57 193.8,-70.15"/>
<text xml:space="preserve" text-anchor="middle" x="288.37" y="-102.95" font-family="Times New Roman,serif" font-size="9.00">implies</text>
</g>
<!-- I_epsilon_delta -->
<g id="node7" class="node">
<title>I_epsilon_delta</title>
<ellipse fill="#fce7f3" stroke="#ec4899" cx="395" cy="-50" rx="52.63" ry="18"/>
<text xml:space="preserve" text-anchor="middle" x="395" y="-47.62" font-family="Microsoft YaHei" font-size="10.00">Idea · ε&#45;δ 语言</text>
</g>
<!-- M_limit_implies_continuity&#45;&gt;I_epsilon_delta -->
<g id="edge5" class="edge">
<title>M_limit_implies_continuity&#45;&gt;I_epsilon_delta</title>
<path fill="none" stroke="#ec4899" stroke-width="1.5" stroke-dasharray="1,5" d="M395,-144.23C395,-127.12 395,-100.59 395,-80.2"/>
<polygon fill="#ec4899" stroke="#ec4899" stroke-width="1.5" points="398.5,-80.41 395,-70.41 391.5,-80.41 398.5,-80.41"/>
<text xml:space="preserve" text-anchor="middle" x="412.25" y="-102.95" font-family="Times New Roman,serif" font-size="9.00">uses_idea</text>
</g>
</g>
</svg>
